<?xml version="1.0" encoding="UTF-8" standalone="no"?>
<svg
   xmlns:dc="http://purl.org/dc/elements/1.1/"
   xmlns:cc="http://creativecommons.org/ns#"
   xmlns:rdf="http://www.w3.org/1999/02/22-rdf-syntax-ns#"
   xmlns:svg="http://www.w3.org/2000/svg"
   xmlns="http://www.w3.org/2000/svg"
   xmlns:sodipodi="http://sodipodi.sourceforge.net/DTD/sodipodi-0.dtd"
   xmlns:inkscape="http://www.inkscape.org/namespaces/inkscape"
   version="1.1"
   x="0px"
   y="0px"
   viewBox="0 0 200 200"
   enable-background="new 0 0 100 100"
   xml:space="preserve"
   id="svg2"
   inkscape:version="0.48.4 r9939"
   width="100%"
   height="100%"
   sodipodi:docname="icon-gene.svg"
   inkscape:export-filename="/home/matt/gadget/app/static/icon-gene.png"
   inkscape:export-xdpi="67.5"
   inkscape:export-ydpi="67.5"><metadata
     id="metadata24"><rdf:RDF><cc:Work
         rdf:about=""><dc:format>image/svg+xml</dc:format><dc:type
           rdf:resource="http://purl.org/dc/dcmitype/StillImage" /><dc:title></dc:title></cc:Work></rdf:RDF></metadata><defs
     id="defs22" /><sodipodi:namedview
     pagecolor="#ffffff"
     bordercolor="#666666"
     borderopacity="1"
     objecttolerance="10"
     gridtolerance="10"
     guidetolerance="10"
     inkscape:pageopacity="0"
     inkscape:pageshadow="2"
     inkscape:window-width="1301"
     inkscape:window-height="744"
     id="namedview20"
     showgrid="false"
     inkscape:zoom="0.834386"
     inkscape:cx="-3.3989323"
     inkscape:cy="105.01538"
     inkscape:window-x="65"
     inkscape:window-y="24"
     inkscape:window-maximized="1"
     inkscape:current-layer="svg2"
     fit-margin-top="10"
     fit-margin-bottom="10"
     fit-margin-left="10"
     fit-margin-right="10" /><g
     id="g2989"
     inkscape:export-xdpi="90"
     inkscape:export-ydpi="90"
     transform="translate(57.527329,-31.504367)"><path
       inkscape:connector-curvature="0"
       style="fill:#702b34;fill-opacity:1"
       id="path4"
       d="m 134.4007,195.99243 c -0.15047,0 -0.29377,-0.009 -0.44568,-0.0258 -2.35882,-0.24362 -4.07278,-2.35166 -3.83775,-4.71049 0.15047,-1.56205 3.42646,-38.5079 -32.013254,-55.88956 -40.912588,-20.0758 -36.818319,-64.058015 -36.772462,-64.495101 0.243622,-2.358825 2.397519,-4.072773 4.710487,-3.82915 2.358825,0.243621 4.077071,2.35166 3.842049,4.710486 -0.159071,1.562042 -3.42646,38.507905 32.00895,55.889555 40.91402,20.07725 36.82405,64.05946 36.7739,64.49654 -0.22787,2.20836 -2.09085,3.85352 -4.26624,3.85352 z" /><g
       transform="matrix(1.4330655,0,0,1.4330655,28.346304,59.851204)"
       style="fill:#702b34;fill-opacity:1"
       id="g6"><path
         inkscape:connector-curvature="0"
         style="fill:#702b34;fill-opacity:1"
         id="path8"
         d="M 25.998,95 C 24.478,95 23.174,93.846 23.016,92.305 22.927,91.42 21.02,70.59 37.001,55.42 c 1.204,-1.143 3.103,-1.09 4.242,0.105 1.14,1.207 1.09,3.105 -0.111,4.242 -13.869,13.167 -12.167,31.747 -12.146,31.928 0.167,1.652 -1.034,3.123 -2.684,3.287 C 26.2,94.994 26.097,95 25.998,95 z" /><path
         inkscape:connector-curvature="0"
         style="fill:#702b34;fill-opacity:1"
         id="path10"
         d="m 60.934,45.407 c -0.791,0 -1.588,-0.311 -2.174,-0.932 -1.143,-1.207 -1.096,-3.105 0.105,-4.242 13.87,-13.166 12.17,-31.746 12.153,-31.934 -0.17,-1.646 1.031,-3.117 2.684,-3.281 1.541,-0.182 3.117,1.025 3.281,2.684 0.094,0.879 1.992,21.709 -13.98,36.879 -0.587,0.55 -1.325,0.826 -2.069,0.826 z" /></g><path
       inkscape:connector-curvature="0"
       style="fill:#702b34;fill-opacity:1"
       id="path12"
       d="M 109.59581,165.89805 H 90.404193 c -2.376023,0 -4.299196,-1.92317 -4.299196,-4.29919 0,-2.37602 1.923173,-4.2992 4.299196,-4.2992 h 19.191617 c 2.37602,0 4.29919,1.92318 4.29919,4.2992 0,2.37602 -1.92317,4.29919 -4.29919,4.29919 z" /><path
       inkscape:connector-curvature="0"
       style="fill:#702b34;fill-opacity:1"
       id="path14"
       d="M 116.55836,183.09484 H 83.44165 c -2.376023,0 -4.299197,-1.92318 -4.299197,-4.2992 0,-2.37602 1.923174,-4.2992 4.299197,-4.2992 h 33.11671 c 2.37602,0 4.29919,1.92318 4.29919,4.2992 0,2.37602 -1.92317,4.2992 -4.29919,4.2992 z" /><path
       inkscape:connector-curvature="0"
       style="fill:#702b34;fill-opacity:1"
       id="path16"
       d="M 116.55836,88.512516 H 83.44165 c -2.376023,0 -4.299197,-1.923174 -4.299197,-4.299196 0,-2.376024 1.923174,-4.299197 4.299197,-4.299197 h 33.11671 c 2.37602,0 4.29919,1.923173 4.29919,4.299197 0,2.376022 -1.92317,4.299196 -4.29919,4.299196 z" /><path
       inkscape:connector-curvature="0"
       style="fill:#702b34;fill-opacity:1"
       id="path18"
       d="M 109.59581,105.7093 H 90.404193 c -2.376023,0 -4.299196,-1.92317 -4.299196,-4.29919 0,-2.376027 1.923173,-4.299201 4.299196,-4.299201 h 19.191617 c 2.37602,0 4.29919,1.923174 4.29919,4.299201 0,2.37602 -1.92317,4.29919 -4.29919,4.29919 z" /></g></svg>