<?xml version="1.0" encoding="UTF-8" standalone="no"?>
<svg
   xmlns:dc="http://purl.org/dc/elements/1.1/"
   xmlns:cc="http://creativecommons.org/ns#"
   xmlns:rdf="http://www.w3.org/1999/02/22-rdf-syntax-ns#"
   xmlns:svg="http://www.w3.org/2000/svg"
   xmlns="http://www.w3.org/2000/svg"
   xmlns:sodipodi="http://sodipodi.sourceforge.net/DTD/sodipodi-0.dtd"
   xmlns:inkscape="http://www.inkscape.org/namespaces/inkscape"
   version="1.1"
   x="0px"
   y="0px"
   viewBox="0 0 220 200"
   enable-background="new 0 0 60 60"
   xml:space="preserve"
   id="svg2"
   inkscape:version="0.48.4 r9939"
   width="100%"
   height="100%"
   sodipodi:docname="icon-metabolite.svg"
   inkscape:export-filename="/home/matt/gadget/app/static/icon-metabolite.png"
   inkscape:export-xdpi="67.5"
   inkscape:export-ydpi="67.5"><metadata
     id="metadata10"><rdf:RDF><cc:Work
         rdf:about=""><dc:format>image/svg+xml</dc:format><dc:type
           rdf:resource="http://purl.org/dc/dcmitype/StillImage" /><dc:title></dc:title></cc:Work></rdf:RDF></metadata><defs
     id="defs8" /><sodipodi:namedview
     pagecolor="#ffffff"
     bordercolor="#666666"
     borderopacity="1"
     objecttolerance="10"
     gridtolerance="10"
     guidetolerance="10"
     inkscape:pageopacity="0"
     inkscape:pageshadow="2"
     inkscape:window-width="1301"
     inkscape:window-height="744"
     id="namedview6"
     showgrid="false"
     fit-margin-top="20"
     fit-margin-bottom="20"
     fit-margin-left="8"
     fit-margin-right="8"
     inkscape:zoom="0.98333333"
     inkscape:cx="-75.277681"
     inkscape:cy="19.53918"
     inkscape:window-x="65"
     inkscape:window-y="24"
     inkscape:window-maximized="1"
     inkscape:current-layer="svg2" /><path
     d="m 192.75579,109.9874 c -7.02157,0 -13.20813,3.64785 -16.75897,9.15756 l -20.18962,-7.51919 c 0.0211,-0.35213 0.038,-0.70848 0.038,-1.06904 0,-8.91507 -7.25772,-16.174906 -16.177,-16.174906 -1.05428,0 -2.0896,0.107544 -3.08485,0.303642 L 125.6693,71.084161 c 4.83497,-3.715314 7.83758,-9.667828 7.83758,-16.217067 0.12441,-10.720005 -8.93192,-19.64983 -19.65194,-19.64983 -11.15226,0 -20.242337,8.929825 -20.242337,19.940814 0,11.01099 8.948797,19.647721 19.647717,19.940813 1.61306,0 3.18607,-0.198206 4.69159,-0.560881 l 10.91401,23.618161 c -3.54663,2.970999 -5.81125,7.430639 -5.81125,12.400559 0,3.57193 1.19134,6.54923 2.97731,9.23134 l -10.13172,10.71579 c -1.98206,-0.86873 -4.17287,-1.36003 -6.46489,-1.36003 -8.56716,0.14338 -15.822767,7.28936 -15.822767,16.41106 0,9.12168 7.255607,16.07368 16.077897,16.177 8.91929,0 16.1749,-7.24929 16.1749,-16.177 0,-3.70055 -1.25038,-7.11012 -3.34631,-9.83019 l 9.88079,-10.66939 c 2.15918,1.18923 4.76117,1.78596 7.14176,1.6742 5.7037,0 10.73055,-2.97098 13.61297,-7.4496 l 19.8164,7.14386 c -0.17501,1.06272 -0.2699,2.15285 -0.2699,3.25774 0,10.72001 8.92982,19.64774 19.64562,19.93449 10.99201,0 19.93448,-8.94246 19.93448,-19.93449 0.41118,-10.51336 -8.51865,-19.4453 -19.23443,-19.69411 h -0.29099 z"
     id="path4"
     style="fill:#702b34;fill-opacity:1"
     inkscape:connector-curvature="0" /></svg>