<?xml version="1.0" encoding="UTF-8" standalone="no"?>
<svg
   xmlns:dc="http://purl.org/dc/elements/1.1/"
   xmlns:cc="http://creativecommons.org/ns#"
   xmlns:rdf="http://www.w3.org/1999/02/22-rdf-syntax-ns#"
   xmlns:svg="http://www.w3.org/2000/svg"
   xmlns="http://www.w3.org/2000/svg"
   xmlns:sodipodi="http://sodipodi.sourceforge.net/DTD/sodipodi-0.dtd"
   xmlns:inkscape="http://www.inkscape.org/namespaces/inkscape"
   version="1.1"
   x="0px"
   y="0px"
   viewBox="0 0 200 200"
   enable-background="new 0 0 100 100"
   xml:space="preserve"
   id="svg2"
   inkscape:version="0.48.4 r9939"
   width="100%"
   height="100%"
   sodipodi:docname="icon-text.svg"
   inkscape:export-filename="/home/matt/gadget/app/static/icon-text.png"
   inkscape:export-xdpi="249.01268"
   inkscape:export-ydpi="249.01268"><metadata
     id="metadata10"><rdf:RDF><cc:Work
         rdf:about=""><dc:format>image/svg+xml</dc:format><dc:type
           rdf:resource="http://purl.org/dc/dcmitype/StillImage" /><dc:title></dc:title></cc:Work></rdf:RDF></metadata><defs
     id="defs8" /><sodipodi:namedview
     pagecolor="#ffffff"
     bordercolor="#666666"
     borderopacity="1"
     objecttolerance="10"
     gridtolerance="10"
     guidetolerance="10"
     inkscape:pageopacity="0"
     inkscape:pageshadow="2"
     inkscape:window-width="729"
     inkscape:window-height="480"
     id="namedview6"
     showgrid="false"
     fit-margin-top="10"
     fit-margin-bottom="10"
     fit-margin-left="10"
     fit-margin-right="10"
     inkscape:zoom="1.18"
     inkscape:cx="67.364417"
     inkscape:cy="76.041039"
     inkscape:window-x="65"
     inkscape:window-y="24"
     inkscape:window-maximized="0"
     inkscape:current-layer="svg2" /><path
     d="m 169.56811,59.434831 c 0,0 0,0 0,0 0,-0.456185 -0.22809,-0.684277 -0.45619,-1.140461 0,0 0,-0.228092 -0.22809,-0.228092 -0.22809,-0.228092 -0.45618,-0.684277 -0.68427,-0.912369 0,0 0,0 0,0 L 117.79119,6.9736376 c 0,0 0,0 0,0 l 0,0 c 0,0 0,0 0,0 -0.2281,-0.2280921 -0.45619,-0.4561843 -0.91237,-0.6842764 0,0 -0.22809,0 -0.22809,-0.2280921 -0.2281,-0.2280922 -0.68428,-0.2280922 -0.91237,-0.4561843 0,0 0,0 0,0 -0.22809,0 -0.45619,0 -0.68428,0 H 42.520777 c -6.614673,0 -12.088884,5.4742112 -12.088884,12.0888832 V 182.14841 c 0,6.61467 5.474211,12.08888 12.088884,12.08888 H 157.47922 c 6.61468,0 12.08889,-5.47421 12.08889,-12.08888 V 60.347199 c 0,-0.456184 0,-0.684276 0,-0.912368 z M 155.1983,56.013449 H 119.15974 V 20.202982 l 36.03856,35.810467 z m 5.9304,126.134961 c 0,2.05283 -1.59665,3.64947 -3.64948,3.64947 H 42.520777 c -2.05283,0 -3.649475,-1.59664 -3.649475,-3.64947 V 17.92206 c 0,-2.052829 1.596645,-3.649474 3.649475,-3.649474 h 68.199553 v 45.846521 c 0,2.280922 1.82474,4.105659 4.10566,4.105659 h 46.07462 V 182.14841 z m -19.38783,-44.02179 c 0,2.28092 -1.82474,4.10566 -4.10566,4.10566 H 61.680517 c -2.280922,0 -4.105659,-1.82474 -4.105659,-4.10566 0,-2.28092 1.824737,-4.10566 4.105659,-4.10566 h 75.954693 c 2.28092,-0.22809 4.10566,1.59665 4.10566,4.10566 z m 0,25.09014 c 0,2.28092 -1.82474,4.10566 -4.10566,4.10566 H 61.680517 c -2.280922,0 -4.105659,-1.82474 -4.105659,-4.10566 0,-2.28092 1.824737,-4.10566 4.105659,-4.10566 h 75.954693 c 2.28092,0 4.10566,1.82474 4.10566,4.10566 z m 0,-50.18027 c 0,2.28092 -1.82474,4.10566 -4.10566,4.10566 H 61.680517 c -2.280922,0 -4.105659,-1.82474 -4.105659,-4.10566 0,-2.28092 1.824737,-4.10566 4.105659,-4.10566 h 75.954693 c 2.28092,0 4.10566,1.82474 4.10566,4.10566 z M 61.680517,83.84069 h 75.954693 c 2.28092,0 4.10566,1.824737 4.10566,4.105659 0,2.280921 -1.82474,4.105658 -4.10566,4.105658 H 61.680517 c -2.280922,0 -4.105659,-1.824737 -4.105659,-4.105658 -0.228092,-2.05283 1.824737,-4.105659 4.105659,-4.105659 z M 57.346766,63.084305 c 0,-2.280921 1.824737,-4.105659 4.105659,-4.105659 h 26.230596 c 2.280922,0 4.105659,1.824738 4.105659,4.105659 0,2.280921 -1.824737,4.105659 -4.105659,4.105659 H 61.680517 c -2.280922,0.228092 -4.333751,-1.596645 -4.333751,-4.105659 z m 0,-24.862044 c 0,-2.280921 1.824737,-4.105658 4.105659,-4.105658 h 26.230596 c 2.280922,0 4.105659,1.824737 4.105659,4.105658 0,2.280922 -1.824737,4.105659 -4.105659,4.105659 H 61.680517 c -2.280922,0 -4.333751,-1.824737 -4.333751,-4.105659 z"
     id="path4"
     style="fill:#702b34;fill-opacity:1"
     inkscape:connector-curvature="0" /></svg>