<?xml version="1.0" encoding="UTF-8" standalone="no"?>
<svg
   xmlns:dc="http://purl.org/dc/elements/1.1/"
   xmlns:cc="http://creativecommons.org/ns#"
   xmlns:rdf="http://www.w3.org/1999/02/22-rdf-syntax-ns#"
   xmlns:svg="http://www.w3.org/2000/svg"
   xmlns="http://www.w3.org/2000/svg"
   xmlns:sodipodi="http://sodipodi.sourceforge.net/DTD/sodipodi-0.dtd"
   xmlns:inkscape="http://www.inkscape.org/namespaces/inkscape"
   version="1.1"
   x="0px"
   y="0px"
   viewBox="0 0 200 200"
   enable-background="new 0 0 100 100"
   xml:space="preserve"
   id="svg2"
   inkscape:version="0.48.4 r9939"
   width="100%"
   height="100%"
   sodipodi:docname="icon-gene.svg"
   inkscape:export-filename="/home/matt/gadget/app/static/icon-gene.png"
   inkscape:export-xdpi="90"
   inkscape:export-ydpi="90"><metadata
     id="metadata24"><rdf:RDF><cc:Work
         rdf:about=""><dc:format>image/svg+xml</dc:format><dc:type
           rdf:resource="http://purl.org/dc/dcmitype/StillImage" /><dc:title></dc:title></cc:Work></rdf:RDF></metadata><defs
     id="defs22" /><sodipodi:namedview
     pagecolor="#ffffff"
     bordercolor="#666666"
     borderopacity="1"
     objecttolerance="10"
     gridtolerance="10"
     guidetolerance="10"
     inkscape:pageopacity="0"
     inkscape:pageshadow="2"
     inkscape:window-width="1301"
     inkscape:window-height="744"
     id="namedview20"
     showgrid="false"
     inkscape:zoom="0.834386"
     inkscape:cx="-196.35519"
     inkscape:cy="105.01538"
     inkscape:window-x="65"
     inkscape:window-y="24"
     inkscape:window-maximized="1"
     inkscape:current-layer="svg2"
     fit-margin-top="10"
     fit-margin-bottom="10"
     fit-margin-left="10"
     fit-margin-right="10" /><path
     d="m 150.85659,195.99243 c -0.22246,0 -0.43431,-0.0127 -0.65888,-0.0381 -3.48719,-0.36016 -6.02103,-3.4766 -5.67357,-6.96379 0.22244,-2.30927 5.06554,-56.9285 -47.327082,-82.62482 C 36.713574,76.686433 42.766372,11.664941 42.834166,11.018772 c 0.36016,-3.4871907 3.544393,-6.0210205 6.963789,-5.6608588 3.487191,0.3601594 6.027375,3.4765979 5.679927,6.9637888 -0.235163,2.309258 -5.065537,56.928497 47.320718,82.624815 60.4856,29.681373 54.43916,94.702873 54.36501,95.349033 -0.33686,3.26474 -3.09102,5.69688 -6.30702,5.69688 z"
     id="path4"
     style="fill:#702b34;fill-opacity:1"
     inkscape:connector-curvature="0" /><g
     id="g6"
     style="fill:#702b34;fill-opacity:1"
     transform="matrix(2.118585,0,0,2.118585,-5.9298731,-5.2731491)"><path
       d="M 25.998,95 C 24.478,95 23.174,93.846 23.016,92.305 22.927,91.42 21.02,70.59 37.001,55.42 c 1.204,-1.143 3.103,-1.09 4.242,0.105 1.14,1.207 1.09,3.105 -0.111,4.242 -13.869,13.167 -12.167,31.747 -12.146,31.928 0.167,1.652 -1.034,3.123 -2.684,3.287 C 26.2,94.994 26.097,95 25.998,95 z"
       id="path8"
       style="fill:#702b34;fill-opacity:1"
       inkscape:connector-curvature="0" /><path
       d="m 60.934,45.407 c -0.791,0 -1.588,-0.311 -2.174,-0.932 -1.143,-1.207 -1.096,-3.105 0.105,-4.242 13.87,-13.166 12.17,-31.746 12.153,-31.934 -0.17,-1.646 1.031,-3.117 2.684,-3.281 1.541,-0.182 3.117,1.025 3.281,2.684 0.094,0.879 1.992,21.709 -13.98,36.879 -0.587,0.55 -1.325,0.826 -2.069,0.826 z"
       id="path10"
       style="fill:#702b34;fill-opacity:1"
       inkscape:connector-curvature="0" /></g><path
     d="M 114.18605,151.50214 H 85.813953 c -3.512614,0 -6.355754,-2.84314 -6.355754,-6.35575 0,-3.51261 2.84314,-6.35576 6.355754,-6.35576 h 28.372097 c 3.51261,0 6.35575,2.84315 6.35575,6.35576 0,3.51261 -2.84314,6.35575 -6.35575,6.35575 z"
     id="path12"
     style="fill:#702b34;fill-opacity:1"
     inkscape:connector-curvature="0" /><path
     d="M 124.47919,176.92516 H 75.520813 c -3.512614,0 -6.355756,-2.84314 -6.355756,-6.35575 0,-3.51262 2.843142,-6.35576 6.355756,-6.35576 h 48.958377 c 3.51261,0 6.35575,2.84314 6.35575,6.35576 0,3.51261 -2.84314,6.35575 -6.35575,6.35575 z"
     id="path14"
     style="fill:#702b34;fill-opacity:1"
     inkscape:connector-curvature="0" /><path
     d="M 124.47919,37.098553 H 75.520813 c -3.512614,0 -6.355756,-2.84314 -6.355756,-6.355754 0,-3.512615 2.843142,-6.355756 6.355756,-6.355756 h 48.958377 c 3.51261,0 6.35575,2.843141 6.35575,6.355756 0,3.512614 -2.84314,6.355754 -6.35575,6.355754 z"
     id="path16"
     style="fill:#702b34;fill-opacity:1"
     inkscape:connector-curvature="0" /><path
     d="M 114.18605,62.521574 H 85.813953 c -3.512614,0 -6.355754,-2.843141 -6.355754,-6.355755 0,-3.512614 2.84314,-6.355756 6.355754,-6.355756 h 28.372097 c 3.51261,0 6.35575,2.843142 6.35575,6.355756 0,3.512614 -2.84314,6.355755 -6.35575,6.355755 z"
     id="path18"
     style="fill:#702b34;fill-opacity:1"
     inkscape:connector-curvature="0" /></svg>