<?xml version="1.0" encoding="UTF-8" standalone="no"?>
<svg
   xmlns:dc="http://purl.org/dc/elements/1.1/"
   xmlns:cc="http://creativecommons.org/ns#"
   xmlns:rdf="http://www.w3.org/1999/02/22-rdf-syntax-ns#"
   xmlns:svg="http://www.w3.org/2000/svg"
   xmlns="http://www.w3.org/2000/svg"
   xmlns:sodipodi="http://sodipodi.sourceforge.net/DTD/sodipodi-0.dtd"
   xmlns:inkscape="http://www.inkscape.org/namespaces/inkscape"
   version="1.1"
   x="0px"
   y="0px"
   viewBox="0 0 200 200"
   enable-background="new 0 0 60 60"
   xml:space="preserve"
   id="svg2"
   inkscape:version="0.48.4 r9939"
   width="100%"
   height="100%"
   sodipodi:docname="icon-metabolite.svg"
   inkscape:export-filename="/home/matt/gadget/app/static/icon-metabolite.png"
   inkscape:export-xdpi="249.01268"
   inkscape:export-ydpi="249.01268"><metadata
     id="metadata10"><rdf:RDF><cc:Work
         rdf:about=""><dc:format>image/svg+xml</dc:format><dc:type
           rdf:resource="http://purl.org/dc/dcmitype/StillImage" /><dc:title></dc:title></cc:Work></rdf:RDF></metadata><defs
     id="defs8" /><sodipodi:namedview
     pagecolor="#ffffff"
     bordercolor="#666666"
     borderopacity="1"
     objecttolerance="10"
     gridtolerance="10"
     guidetolerance="10"
     inkscape:pageopacity="0"
     inkscape:pageshadow="2"
     inkscape:window-width="1301"
     inkscape:window-height="744"
     id="namedview6"
     showgrid="false"
     fit-margin-top="20"
     fit-margin-bottom="20"
     fit-margin-left="8"
     fit-margin-right="8"
     inkscape:zoom="0.98333333"
     inkscape:cx="-57.989545"
     inkscape:cy="-61.816752"
     inkscape:window-x="65"
     inkscape:window-y="24"
     inkscape:window-maximized="1"
     inkscape:current-layer="svg2" /><path
     d="m 164.72143,118.94355 c -10.88333,0 -20.47242,5.6541 -25.97617,14.19409 l -31.29365,-11.65463 c 0.0327,-0.54582 0.0589,-1.09815 0.0589,-1.65702 0,-13.81823 -11.249361,-25.070881 -25.074126,-25.070881 -1.634133,0 -3.23885,0.166685 -4.781472,0.470633 L 60.738291,58.644048 C 68.232425,52.885363 72.886433,43.659049 72.886433,33.507816 73.079261,16.891954 59.042061,3.0508476 42.426199,3.0508476 c -17.285858,0 -31.375352,13.8411064 -31.375352,30.9079894 0,17.066885 13.87052,30.4537 30.4537,30.907989 2.500222,0 4.938349,-0.307218 7.27189,-0.869359 L 65.692981,100.6053 c -5.497223,4.605 -9.00734,11.51739 -9.00734,19.22069 0,5.53644 1.84657,10.15123 4.61479,14.30847 l -15.704016,16.60932 c -3.072169,-1.34653 -6.467897,-2.10804 -10.020502,-2.10804 -13.278963,0.22225 -24.525066,11.29841 -24.525066,25.43692 0,14.1385 11.246103,24.91398 24.920526,25.07413 13.824764,0 25.070867,-11.2363 25.070867,-25.07413 0,-5.7358 -1.938082,-11.02059 -5.186738,-15.23665 l 15.315093,-16.53742 c 3.346703,1.8433 7.379744,2.76821 11.069617,2.595 8.840658,0 16.632203,-4.60499 21.099918,-11.54678 l 30.71516,11.07288 c -0.27127,1.6472 -0.41834,3.33689 -0.41834,5.04946 0,16.61586 13.8411,30.45371 30.45044,30.89819 17.03746,0 30.89817,-13.86071 30.89817,-30.89819 0.63732,-16.29557 -13.20379,-30.13994 -29.81311,-30.5256 h -0.45102 z"
     id="path4"
     style="fill:#702b34;fill-opacity:0.30136988"
     inkscape:connector-curvature="0" /><text
     xml:space="preserve"
     style="font-size:54.32485199px;font-style:normal;font-variant:normal;font-weight:normal;font-stretch:normal;text-align:center;line-height:85.00000238%;letter-spacing:0px;word-spacing:0px;text-anchor:middle;fill:#702b34;fill-opacity:1;stroke:none;font-family:FreeSans;-inkscape-font-specification:FreeSans"
     x="101.83758"
     y="92.894257"
     id="text3755"
     sodipodi:linespacing="85.000002%"><tspan
       sodipodi:role="line"
       id="tspan3757"
       x="101.83758"
       y="92.894257">Coming</tspan><tspan
       sodipodi:role="line"
       x="101.83758"
       y="139.07039"
       id="tspan3759">soon</tspan><tspan
       sodipodi:role="line"
       x="101.83758"
       y="185.24651"
       id="tspan3780" /></text>
</svg>