<?xml version="1.0" encoding="UTF-8" standalone="no"?>
<!-- Created with Inkscape (http://www.inkscape.org/) -->

<svg
   xmlns:dc="http://purl.org/dc/elements/1.1/"
   xmlns:cc="http://creativecommons.org/ns#"
   xmlns:rdf="http://www.w3.org/1999/02/22-rdf-syntax-ns#"
   xmlns:svg="http://www.w3.org/2000/svg"
   xmlns="http://www.w3.org/2000/svg"
   xmlns:sodipodi="http://sodipodi.sourceforge.net/DTD/sodipodi-0.dtd"
   xmlns:inkscape="http://www.inkscape.org/namespaces/inkscape"
   width="413.81259"
   height="98.319839"
   id="svg2"
   version="1.1"
   inkscape:version="0.48.4 r9939"
   sodipodi:docname="logo.svg"
   inkscape:export-filename="/home/matt/gadget/app/static/logo.png"
   inkscape:export-xdpi="54.922791"
   inkscape:export-ydpi="54.922791">
  <defs
     id="defs4" />
  <sodipodi:namedview
     id="base"
     pagecolor="#ffffff"
     bordercolor="#666666"
     borderopacity="1.0"
     inkscape:pageopacity="0.0"
     inkscape:pageshadow="2"
     inkscape:zoom="0.49497475"
     inkscape:cx="94.154698"
     inkscape:cy="-109.24057"
     inkscape:document-units="px"
     inkscape:current-layer="layer1"
     showgrid="false"
     fit-margin-top="20"
     fit-margin-right="20"
     fit-margin-bottom="20"
     fit-margin-left="20"
     inkscape:window-width="1301"
     inkscape:window-height="744"
     inkscape:window-x="65"
     inkscape:window-y="24"
     inkscape:window-maximized="1" />
  <metadata
     id="metadata7">
    <rdf:RDF>
      <cc:Work
         rdf:about="">
        <dc:format>image/svg+xml</dc:format>
        <dc:type
           rdf:resource="http://purl.org/dc/dcmitype/StillImage" />
        <dc:title></dc:title>
      </cc:Work>
    </rdf:RDF>
  </metadata>
  <g
     inkscape:label="Layer 1"
     inkscape:groupmode="layer"
     id="layer1"
     transform="translate(-44.385967,-152.94603)">
    <text
       xml:space="preserve"
       style="font-size:72.46935272px;font-style:normal;font-variant:normal;font-weight:normal;font-stretch:normal;line-height:125%;letter-spacing:8.26000118px;word-spacing:-2.54999995px;fill:#f26400;fill-opacity:1;stroke:none;font-family:Meera;-inkscape-font-specification:Meera"
       x="178.64125"
       y="227.16885"
       id="text2985"
       sodipodi:linespacing="125%"
       inkscape:export-xdpi="57.599998"
       inkscape:export-ydpi="57.599998"><tspan
         sodipodi:role="line"
         id="tspan2987"
         x="178.64125"
         y="227.16885"
         style="font-style:normal;font-variant:normal;font-weight:normal;font-stretch:normal;letter-spacing:8.26000118px;word-spacing:-2.54999995px;fill:#f26400;fill-opacity:1;font-family:Meera;-inkscape-font-specification:Meera">GADGET</tspan></text>
    <flowRoot
       xml:space="preserve"
       id="flowRoot2989"
       style="font-size:40px;font-style:normal;font-variant:normal;font-weight:normal;font-stretch:normal;line-height:125%;letter-spacing:0px;word-spacing:0px;fill:#f26400;fill-opacity:1;stroke:none;font-family:Samarkan;-inkscape-font-specification:Samarkan"
       inkscape:export-filename="/home/matt/gadget/app/static/text2985.png"
       inkscape:export-xdpi="57.599998"
       inkscape:export-ydpi="57.599998"><flowRegion
         id="flowRegion2991"><rect
           id="rect2993"
           width="562.85712"
           height="314.28571"
           x="-802.85712"
           y="860.93359"
           style="fill:#f26400;fill-opacity:1" /></flowRegion><flowPara
         id="flowPara2995" /></flowRoot>    <path
       id="path3841"
       d="m 160.03221,207.26533 c -2.93755,0 -5.52578,1.52611 -7.01131,3.83117 l -8.44658,-3.14574 c 0.009,-0.14732 0.0159,-0.2964 0.0159,-0.44726 0,-3.72971 -3.03636,-6.76696 -6.76785,-6.76696 -0.44107,0 -0.87421,0.045 -1.29059,0.12703 l -4.566,-9.87389 c 2.02276,-1.55435 3.27895,-4.04466 3.27895,-6.78461 0.0521,-4.48484 -3.73679,-8.22074 -8.22163,-8.22074 -4.66568,0 -8.46863,3.7359 -8.46863,8.34248 0,4.60659 3.74384,8.21986 8.21987,8.34249 0.67483,0 1.33292,-0.0829 1.96278,-0.23466 l 4.566,9.88095 c -1.48378,1.24294 -2.4312,3.10869 -2.4312,5.18791 0,1.49436 0.49841,2.73996 1.24559,3.86205 l -4.23873,4.48308 c -0.82921,-0.36344 -1.74577,-0.56898 -2.70466,-0.56898 -3.58417,0.06 -6.61965,3.04959 -6.61965,6.86576 0,3.81618 3.03548,6.72462 6.72638,6.76785 3.7315,0 6.76697,-3.03283 6.76697,-6.76785 0,-1.54817 -0.52312,-2.9746 -1.39997,-4.11257 l 4.13374,-4.46367 c 0.90333,0.49753 1.99191,0.74718 2.98785,0.70042 2.38621,0 4.48926,-1.24295 5.69515,-3.11664 l 8.29043,2.98872 c -0.0732,0.44461 -0.11291,0.90068 -0.11291,1.36293 0,4.48484 3.7359,8.21986 8.21898,8.33983 4.59864,0 8.33984,-3.74119 8.33984,-8.33983 0.17202,-4.3984 -3.56388,-8.13518 -8.04696,-8.23927 h -0.12175 z"
       inkscape:connector-curvature="0"
       style="fill:#f26400;fill-opacity:1"
       inkscape:export-filename="/home/matt/gadget/app/static/text2985.png"
       inkscape:export-xdpi="57.599998"
       inkscape:export-ydpi="57.599998" />
    <g
       id="g4242"
       transform="matrix(1.0881873,0,0,1.0881873,-8.7751222,-21.493966)"
       style="fill:#f26400;fill-opacity:1"
       inkscape:export-filename="/home/matt/gadget/app/static/text2985.png"
       inkscape:export-xdpi="57.599998"
       inkscape:export-ydpi="57.599998">
      <g
         style="fill:#f26400;fill-opacity:1"
         transform="matrix(0.59548305,0,0,0.59548305,53.59443,175.70515)"
         id="g4035">
        <path
           style="fill:#f26400;fill-opacity:1"
           inkscape:connector-curvature="0"
           d="m 74.006,95 c -0.105,0 -0.205,-0.006 -0.311,-0.018 -1.646,-0.17 -2.842,-1.641 -2.678,-3.287 0.105,-1.09 2.391,-26.871 -22.339,-39 C 20.129,38.686 22.986,7.995 23.018,7.69 c 0.17,-1.646 1.673,-2.842 3.287,-2.672 1.646,0.17 2.845,1.641 2.681,3.287 -0.111,1.09 -2.391,26.871 22.336,39 28.55,14.01 25.696,44.701 25.661,45.006 C 76.824,93.852 75.524,95 74.006,95 z"
           id="path4013" />
        <g
           style="fill:#f26400;fill-opacity:1"
           id="g4015">
          <path
             style="fill:#f26400;fill-opacity:1"
             inkscape:connector-curvature="0"
             d="M 25.998,95 C 24.478,95 23.174,93.846 23.016,92.305 22.927,91.42 21.02,70.59 37.001,55.42 c 1.204,-1.143 3.103,-1.09 4.242,0.105 1.14,1.207 1.09,3.105 -0.111,4.242 -13.869,13.167 -12.167,31.747 -12.146,31.928 0.167,1.652 -1.034,3.123 -2.684,3.287 C 26.2,94.994 26.097,95 25.998,95 z"
             id="path4017" />
          <path
             style="fill:#f26400;fill-opacity:1"
             inkscape:connector-curvature="0"
             d="m 60.934,45.407 c -0.791,0 -1.588,-0.311 -2.174,-0.932 -1.143,-1.207 -1.096,-3.105 0.105,-4.242 13.87,-13.166 12.17,-31.746 12.153,-31.934 -0.17,-1.646 1.031,-3.117 2.684,-3.281 1.541,-0.182 3.117,1.025 3.281,2.684 0.094,0.879 1.992,21.709 -13.98,36.879 -0.587,0.55 -1.325,0.826 -2.069,0.826 z"
             id="path4019" />
        </g>
        <path
           style="fill:#f26400;fill-opacity:1"
           inkscape:connector-curvature="0"
           d="M 56.698,74 H 43.306 c -1.658,0 -3,-1.342 -3,-3 0,-1.658 1.342,-3 3,-3 h 13.392 c 1.658,0 3,1.342 3,3 0,1.658 -1.342,3 -3,3 z"
           id="path4021" />
        <path
           style="fill:#f26400;fill-opacity:1"
           inkscape:connector-curvature="0"
           d="M 61.555,86 H 38.446 c -1.658,0 -3,-1.342 -3,-3 0,-1.658 1.342,-3 3,-3 h 23.109 c 1.658,0 3,1.342 3,3 0,1.658 -1.342,3 -3,3 z"
           id="path4023" />
        <path
           style="fill:#f26400;fill-opacity:1"
           inkscape:connector-curvature="0"
           d="M 61.555,20 H 38.446 c -1.658,0 -3,-1.342 -3,-3 0,-1.658 1.342,-3 3,-3 h 23.109 c 1.658,0 3,1.342 3,3 0,1.658 -1.342,3 -3,3 z"
           id="path4025" />
        <path
           style="fill:#f26400;fill-opacity:1"
           inkscape:connector-curvature="0"
           d="M 56.698,32 H 43.306 c -1.658,0 -3,-1.342 -3,-3 0,-1.658 1.342,-3 3,-3 h 13.392 c 1.658,0 3,1.342 3,3 0,1.658 -1.342,3 -3,3 z"
           id="path4027" />
      </g>
    </g>
  </g>
</svg>
