<?xml version="1.0" encoding="UTF-8" standalone="no"?>
<!-- Created with Inkscape (http://www.inkscape.org/) -->

<svg
   xmlns:sketch="http://www.bohemiancoding.com/sketch/ns"
   xmlns:dc="http://purl.org/dc/elements/1.1/"
   xmlns:cc="http://creativecommons.org/ns#"
   xmlns:rdf="http://www.w3.org/1999/02/22-rdf-syntax-ns#"
   xmlns:svg="http://www.w3.org/2000/svg"
   xmlns="http://www.w3.org/2000/svg"
   xmlns:sodipodi="http://sodipodi.sourceforge.net/DTD/sodipodi-0.dtd"
   xmlns:inkscape="http://www.inkscape.org/namespaces/inkscape"
   width="476.75336"
   height="93.593567"
   id="svg2"
   version="1.1"
   inkscape:version="0.48.4 r9939"
   sodipodi:docname="logo.svg"
   inkscape:export-filename="/home/matt/gadget/app/static/logo.png"
   inkscape:export-xdpi="57.599998"
   inkscape:export-ydpi="57.599998">
  <defs
     id="defs4" />
  <sodipodi:namedview
     id="base"
     pagecolor="#ffffff"
     bordercolor="#666666"
     borderopacity="1.0"
     inkscape:pageopacity="0.0"
     inkscape:pageshadow="2"
     inkscape:zoom="0.49497475"
     inkscape:cx="-343.057"
     inkscape:cy="-108.2304"
     inkscape:document-units="px"
     inkscape:current-layer="layer1"
     showgrid="false"
     fit-margin-top="20"
     fit-margin-right="20"
     fit-margin-bottom="20"
     fit-margin-left="20"
     inkscape:window-width="1301"
     inkscape:window-height="744"
     inkscape:window-x="65"
     inkscape:window-y="24"
     inkscape:window-maximized="1" />
  <metadata
     id="metadata7">
    <rdf:RDF>
      <cc:Work
         rdf:about="">
        <dc:format>image/svg+xml</dc:format>
        <dc:type
           rdf:resource="http://purl.org/dc/dcmitype/StillImage" />
        <dc:title />
      </cc:Work>
    </rdf:RDF>
  </metadata>
  <g
     inkscape:label="Layer 1"
     inkscape:groupmode="layer"
     id="layer1"
     transform="translate(-47.232074,-158.68247)">
    <text
       xml:space="preserve"
       style="font-size:72.46935272000000339px;font-style:normal;font-variant:normal;font-weight:normal;font-stretch:normal;line-height:125%;letter-spacing:8.26000084000000001px;word-spacing:0px;fill:#f26400;fill-opacity:1;stroke:none;font-family:Meera;-inkscape-font-specification:Meera"
       x="239.25053"
       y="227.16885"
       id="text2985"
       sodipodi:linespacing="125%"
       inkscape:export-xdpi="57.599998"
       inkscape:export-ydpi="57.599998"><tspan
         sodipodi:role="line"
         id="tspan2987"
         x="239.25053"
         y="227.16885"
         style="font-style:normal;font-variant:normal;font-weight:normal;font-stretch:normal;letter-spacing:8.26000084000000001px;fill:#f26400;fill-opacity:1;font-family:Meera;-inkscape-font-specification:Meera">GADGET</tspan></text>
    <flowRoot
       xml:space="preserve"
       id="flowRoot2989"
       style="font-size:40px;font-style:normal;font-variant:normal;font-weight:normal;font-stretch:normal;line-height:125%;letter-spacing:0px;word-spacing:0px;fill:#f26400;fill-opacity:1;stroke:none;font-family:Samarkan;-inkscape-font-specification:Samarkan"
       inkscape:export-filename="/home/matt/gadget/app/static/text2985.png"
       inkscape:export-xdpi="57.599998"
       inkscape:export-ydpi="57.599998"><flowRegion
         id="flowRegion2991"><rect
           id="rect2993"
           width="562.85712"
           height="314.28571"
           x="-802.85712"
           y="860.93359"
           style="fill:#f26400;fill-opacity:1" /></flowRegion><flowPara
         id="flowPara2995" /></flowRoot>    <path
       id="path3841"
       d="m 211.41416,210.93825 c -2.7133,0 -5.10394,1.40961 -6.47607,3.5387 l -7.80176,-2.9056 c 0.008,-0.13607 0.0147,-0.27377 0.0147,-0.41311 0,-3.44499 -2.80456,-6.25037 -6.25119,-6.25037 -0.4074,0 -0.80747,0.0416 -1.19206,0.11733 l -4.21743,-9.12011 c 1.86834,-1.43569 3.02863,-3.73589 3.02863,-6.26667 0.0481,-4.14247 -3.45152,-7.59317 -7.59399,-7.59317 -4.3095,0 -7.82213,3.4507 -7.82213,7.70561 0,4.25492 3.45803,7.59236 7.59236,7.70562 0.62332,0 1.23117,-0.0766 1.81294,-0.21674 l 4.21743,9.12663 c -1.3705,1.14806 -2.2456,2.87138 -2.2456,4.79187 0,1.38028 0.46036,2.53079 1.1505,3.56722 l -3.91514,4.14084 c -0.76591,-0.3357 -1.6125,-0.52555 -2.49819,-0.52555 -3.31055,0.0554 -6.1143,2.81679 -6.1143,6.34163 0,3.52485 2.80375,6.21126 6.21289,6.25119 3.44663,0 6.25037,-2.8013 6.25037,-6.25119 0,-1.42998 -0.48318,-2.74752 -1.29309,-3.79862 l 3.81817,-4.12291 c 0.83437,0.45955 1.83984,0.69014 2.75975,0.64695 2.20405,0 4.14655,-1.14806 5.26038,-2.87871 l 7.65754,2.76056 c -0.0676,0.41067 -0.10429,0.83192 -0.10429,1.25888 0,4.14247 3.4507,7.59235 7.59154,7.70317 4.24758,0 7.70317,-3.45559 7.70317,-7.70317 0.15889,-4.06262 -3.29181,-7.51414 -7.43265,-7.61028 h -0.11245 z"
       inkscape:connector-curvature="0"
       style="fill:#f26400;fill-opacity:1"
       inkscape:export-filename="/home/matt/gadget/app/static/text2985.png"
       inkscape:export-xdpi="57.599998"
       inkscape:export-ydpi="57.599998" />
    <g
       id="g4242"
       transform="translate(0,-1.0101541)"
       style="fill:#f26400;fill-opacity:1"
       inkscape:export-filename="/home/matt/gadget/app/static/text2985.png"
       inkscape:export-xdpi="57.599998"
       inkscape:export-ydpi="57.599998">
      <g
         style="fill:#f26400;fill-opacity:1"
         transform="matrix(0.59548305,0,0,0.59548305,53.59443,175.70515)"
         id="g4035">
        <path
           style="fill:#f26400;fill-opacity:1"
           inkscape:connector-curvature="0"
           d="m 74.006,95 c -0.105,0 -0.205,-0.006 -0.311,-0.018 -1.646,-0.17 -2.842,-1.641 -2.678,-3.287 0.105,-1.09 2.391,-26.871 -22.339,-39 C 20.129,38.686 22.986,7.995 23.018,7.69 c 0.17,-1.646 1.673,-2.842 3.287,-2.672 1.646,0.17 2.845,1.641 2.681,3.287 -0.111,1.09 -2.391,26.871 22.336,39 28.55,14.01 25.696,44.701 25.661,45.006 C 76.824,93.852 75.524,95 74.006,95 z"
           id="path4013" />
        <g
           style="fill:#f26400;fill-opacity:1"
           id="g4015">
          <path
             style="fill:#f26400;fill-opacity:1"
             inkscape:connector-curvature="0"
             d="M 25.998,95 C 24.478,95 23.174,93.846 23.016,92.305 22.927,91.42 21.02,70.59 37.001,55.42 c 1.204,-1.143 3.103,-1.09 4.242,0.105 1.14,1.207 1.09,3.105 -0.111,4.242 -13.869,13.167 -12.167,31.747 -12.146,31.928 0.167,1.652 -1.034,3.123 -2.684,3.287 C 26.2,94.994 26.097,95 25.998,95 z"
             id="path4017" />
          <path
             style="fill:#f26400;fill-opacity:1"
             inkscape:connector-curvature="0"
             d="m 60.934,45.407 c -0.791,0 -1.588,-0.311 -2.174,-0.932 -1.143,-1.207 -1.096,-3.105 0.105,-4.242 13.87,-13.166 12.17,-31.746 12.153,-31.934 -0.17,-1.646 1.031,-3.117 2.684,-3.281 1.541,-0.182 3.117,1.025 3.281,2.684 0.094,0.879 1.992,21.709 -13.98,36.879 -0.587,0.55 -1.325,0.826 -2.069,0.826 z"
             id="path4019" />
        </g>
        <path
           style="fill:#f26400;fill-opacity:1"
           inkscape:connector-curvature="0"
           d="M 56.698,74 H 43.306 c -1.658,0 -3,-1.342 -3,-3 0,-1.658 1.342,-3 3,-3 h 13.392 c 1.658,0 3,1.342 3,3 0,1.658 -1.342,3 -3,3 z"
           id="path4021" />
        <path
           style="fill:#f26400;fill-opacity:1"
           inkscape:connector-curvature="0"
           d="M 61.555,86 H 38.446 c -1.658,0 -3,-1.342 -3,-3 0,-1.658 1.342,-3 3,-3 h 23.109 c 1.658,0 3,1.342 3,3 0,1.658 -1.342,3 -3,3 z"
           id="path4023" />
        <path
           style="fill:#f26400;fill-opacity:1"
           inkscape:connector-curvature="0"
           d="M 61.555,20 H 38.446 c -1.658,0 -3,-1.342 -3,-3 0,-1.658 1.342,-3 3,-3 h 23.109 c 1.658,0 3,1.342 3,3 0,1.658 -1.342,3 -3,3 z"
           id="path4025" />
        <path
           style="fill:#f26400;fill-opacity:1"
           inkscape:connector-curvature="0"
           d="M 56.698,32 H 43.306 c -1.658,0 -3,-1.342 -3,-3 0,-1.658 1.342,-3 3,-3 h 13.392 c 1.658,0 3,1.342 3,3 0,1.658 -1.342,3 -3,3 z"
           id="path4027" />
      </g>
    </g>
    <g
       id="g4115"
       sketch:type="MSPage"
       transform="matrix(1.0390686,0,0,1.0390686,195.59968,55.336235)"
       style="fill:#f26400;fill-opacity:1;stroke:none"
       inkscape:export-filename="/home/matt/gadget/app/static/text2985.png"
       inkscape:export-xdpi="57.599998"
       inkscape:export-ydpi="57.599998">
      <path
         id="path3465"
         d="m -36.621916,132.42652 c 0,0 0,0 0,0 0,-0.12506 -0.06253,-0.18759 -0.125059,-0.31265 0,0 0,-0.0625 -0.06253,-0.0625 -0.06253,-0.0625 -0.125058,-0.18759 -0.187588,-0.25012 0,0 0,0 0,0 l -13.81897,-13.75644 c 0,0 0,0 0,0 l 0,0 c 0,0 0,0 0,0 -0.06253,-0.0625 -0.125058,-0.12506 -0.250117,-0.18759 0,0 -0.06253,0 -0.06253,-0.0625 -0.06253,-0.0625 -0.187588,-0.0625 -0.250117,-0.12505 0,0 0,0 0,0 -0.06253,0 -0.125059,0 -0.187588,0 h -19.884317 c -1.813349,0 -3.314052,1.5007 -3.314052,3.31405 v 45.08361 c 0,1.81335 1.500703,3.31405 3.314052,3.31405 h 31.514762 c 1.813349,0 3.314052,-1.5007 3.314052,-3.31405 v -33.39064 c 0,-0.12506 0,-0.18758 0,-0.25011 z m -3.939344,-0.93794 h -9.879626 v -9.8171 l 9.879626,9.8171 z m 1.625761,34.57869 c 0,0.56276 -0.437705,1.00047 -1.000469,1.00047 H -71.45073 c -0.562764,0 -1.000469,-0.43771 -1.000469,-1.00047 v -45.02108 c 0,-0.56277 0.437705,-1.00047 1.000469,-1.00047 h 18.696261 v 12.56838 c 0,0.6253 0.500234,1.12553 1.125527,1.12553 h 12.630914 v 32.32764 z m -5.314989,-12.06815 c 0,0.62529 -0.500234,1.12552 -1.125527,1.12552 h -20.822256 c -0.625292,0 -1.125527,-0.50023 -1.125527,-1.12552 0,-0.6253 0.500235,-1.12553 1.125527,-1.12553 h 20.822256 c 0.625293,-0.0625 1.125527,0.43771 1.125527,1.12553 z m 0,6.87822 c 0,0.62529 -0.500234,1.12553 -1.125527,1.12553 h -20.822256 c -0.625292,0 -1.125527,-0.50024 -1.125527,-1.12553 0,-0.62529 0.500235,-1.12553 1.125527,-1.12553 h 20.822256 c 0.625293,0 1.125527,0.50024 1.125527,1.12553 z m 0,-13.75644 c 0,0.62529 -0.500234,1.12552 -1.125527,1.12552 h -20.822256 c -0.625292,0 -1.125527,-0.50023 -1.125527,-1.12552 0,-0.6253 0.500235,-1.12553 1.125527,-1.12553 h 20.822256 c 0.625293,0 1.125527,0.50023 1.125527,1.12553 z m -21.947783,-8.00375 h 20.822256 c 0.625293,0 1.125527,0.50023 1.125527,1.12553 0,0.62529 -0.500234,1.12552 -1.125527,1.12552 h -20.822256 c -0.625292,0 -1.125527,-0.50023 -1.125527,-1.12552 -0.06253,-0.56277 0.500235,-1.12553 1.125527,-1.12553 z m -1.188056,-5.69017 c 0,-0.62529 0.500234,-1.12552 1.125527,-1.12552 h 7.190873 c 0.625293,0 1.125527,0.50023 1.125527,1.12552 0,0.6253 -0.500234,1.12553 -1.125527,1.12553 h -7.128344 c -0.625292,0.0625 -1.188056,-0.4377 -1.188056,-1.12553 z m 0,-6.81569 c 0,-0.62529 0.500234,-1.12552 1.125527,-1.12552 h 7.190873 c 0.625293,0 1.125527,0.50023 1.125527,1.12552 0,0.6253 -0.500234,1.12553 -1.125527,1.12553 h -7.128344 c -0.625292,0 -1.188056,-0.50023 -1.188056,-1.12553 z"
         inkscape:connector-curvature="0"
         style="fill:#f26400;fill-opacity:1" />
    </g>
  </g>
</svg>
